<svg width="782" height="85" viewBox="0 0 782 85" fill="none" xmlns="http://www.w3.org/2000/svg">
<path d="M27.2354 28H23.6904V10.876L18.4609 12.6631V9.66016L26.7812 6.59863H27.2354V28ZM48.8418 8.64941L40.3164 28H36.5811L45.0918 9.52832H34.0615V6.67188H48.8418V8.64941Z" fill="#002DA0" fill-opacity="0.8"/>
<path d="M3.09375 50.0469L6.76465 58.8311L10.4492 50.0469H11.5703V60H10.7295V55.666L10.7979 51.2227L7.09277 60H6.44336L2.75195 51.2568L2.82031 55.6387V60H1.97949V50.0469H3.09375ZM18.5703 60C18.4883 59.7676 18.4359 59.4235 18.4131 58.9678C18.126 59.3415 17.7591 59.6309 17.3125 59.8359C16.8704 60.0365 16.401 60.1367 15.9043 60.1367C15.1934 60.1367 14.6169 59.9385 14.1748 59.542C13.7373 59.1455 13.5186 58.6442 13.5186 58.0381C13.5186 57.318 13.8171 56.7484 14.4141 56.3291C15.0156 55.9098 15.8519 55.7002 16.9229 55.7002H18.4062V54.8594C18.4062 54.3307 18.2422 53.916 17.9141 53.6152C17.5905 53.3099 17.1165 53.1572 16.4922 53.1572C15.9225 53.1572 15.4508 53.3031 15.0771 53.5947C14.7035 53.8864 14.5166 54.2373 14.5166 54.6475L13.6963 54.6406C13.6963 54.0527 13.9697 53.5446 14.5166 53.1162C15.0635 52.6833 15.7357 52.4668 16.5332 52.4668C17.3581 52.4668 18.0075 52.6742 18.4814 53.0889C18.96 53.499 19.2061 54.0732 19.2197 54.8115V58.3115C19.2197 59.027 19.2949 59.5625 19.4453 59.918V60H18.5703ZM16 59.4121C16.5469 59.4121 17.0345 59.2799 17.4629 59.0156C17.8958 58.7513 18.2103 58.3981 18.4062 57.9561V56.3291H16.9434C16.1276 56.3382 15.4896 56.4886 15.0293 56.7803C14.569 57.0674 14.3389 57.4639 14.3389 57.9697C14.3389 58.3844 14.4915 58.7285 14.7969 59.002C15.1068 59.2754 15.5078 59.4121 16 59.4121ZM24.1416 59.4463C24.7113 59.4463 25.1875 59.2868 25.5703 58.9678C25.9577 58.6442 26.1673 58.2272 26.1992 57.7168H26.9854C26.9626 58.168 26.8213 58.5804 26.5615 58.9541C26.3018 59.3232 25.9554 59.6126 25.5225 59.8223C25.0941 60.0319 24.6338 60.1367 24.1416 60.1367C23.1709 60.1367 22.4007 59.7995 21.8311 59.125C21.266 58.4505 20.9834 57.5436 20.9834 56.4043V56.1582C20.9834 55.429 21.111 54.7842 21.3662 54.2236C21.6214 53.6631 21.986 53.2301 22.46 52.9248C22.9385 52.6195 23.4967 52.4668 24.1348 52.4668C24.946 52.4668 25.6136 52.7083 26.1377 53.1914C26.6663 53.6745 26.9489 54.3102 26.9854 55.0986H26.1992C26.1628 54.5199 25.9531 54.0527 25.5703 53.6973C25.1921 53.3418 24.7135 53.1641 24.1348 53.1641C23.3965 53.1641 22.8223 53.4307 22.4121 53.9639C22.0065 54.4971 21.8037 55.2445 21.8037 56.2061V56.4453C21.8037 57.3887 22.0065 58.1247 22.4121 58.6533C22.8223 59.182 23.3988 59.4463 24.1416 59.4463ZM33.9375 53.3008H31.2441V60H30.4238V53.3008H27.833V52.6035H33.9375V53.3008ZM37.6016 60.1367C36.9727 60.1367 36.403 59.9818 35.8926 59.6719C35.3867 59.362 34.9925 58.9313 34.71 58.3799C34.4274 57.8239 34.2861 57.2018 34.2861 56.5137V56.2197C34.2861 55.5088 34.4229 54.8685 34.6963 54.2988C34.9743 53.7292 35.3594 53.2826 35.8516 52.959C36.3438 52.6309 36.877 52.4668 37.4512 52.4668C38.349 52.4668 39.0599 52.7744 39.584 53.3896C40.1126 54.0003 40.377 54.8366 40.377 55.8984V56.3564H35.0996V56.5137C35.0996 57.3522 35.3389 58.0518 35.8174 58.6123C36.3005 59.1683 36.9066 59.4463 37.6357 59.4463C38.0732 59.4463 38.4583 59.3665 38.791 59.207C39.1283 59.0475 39.4336 58.7923 39.707 58.4414L40.2197 58.8311C39.6182 59.7015 38.7454 60.1367 37.6016 60.1367ZM37.4512 53.1641C36.8359 53.1641 36.3164 53.3896 35.8926 53.8408C35.4733 54.292 35.2181 54.8981 35.127 55.6592H39.5635V55.5703C39.5407 54.8594 39.3379 54.2806 38.9551 53.834C38.5723 53.3874 38.071 53.1641 37.4512 53.1641ZM47.1992 53.3008H44.5059V60H43.6855V53.3008H41.0947V52.6035H47.1992V53.3008ZM47.8076 56.1924C47.8076 55.4814 47.9443 54.8411 48.2178 54.2715C48.4958 53.7018 48.8854 53.2598 49.3867 52.9453C49.8926 52.6263 50.4645 52.4668 51.1025 52.4668C52.0869 52.4668 52.8844 52.8132 53.4951 53.5059C54.1058 54.194 54.4111 55.1077 54.4111 56.2471V56.418C54.4111 57.1335 54.2721 57.7783 53.9941 58.3525C53.7207 58.9222 53.3333 59.362 52.832 59.6719C52.3307 59.9818 51.7588 60.1367 51.1162 60.1367C50.1364 60.1367 49.3389 59.7926 48.7236 59.1045C48.113 58.4118 47.8076 57.4958 47.8076 56.3564V56.1924ZM48.6279 56.418C48.6279 57.3021 48.8558 58.029 49.3115 58.5986C49.7718 59.1637 50.3734 59.4463 51.1162 59.4463C51.8545 59.4463 52.4515 59.1637 52.9072 58.5986C53.3675 58.029 53.5977 57.2793 53.5977 56.3496V56.1924C53.5977 55.6273 53.4928 55.11 53.2832 54.6406C53.0736 54.1712 52.7796 53.8089 52.4014 53.5537C52.0231 53.2939 51.5902 53.1641 51.1025 53.1641C50.3734 53.1641 49.7786 53.4512 49.3184 54.0254C48.8581 54.5951 48.6279 55.3424 48.6279 56.2676V56.418ZM56.1953 60V52.6035H58.9092C59.848 52.6035 60.568 52.7721 61.0693 53.1094C61.5706 53.4421 61.8213 53.932 61.8213 54.5791C61.8213 54.9482 61.7096 55.2786 61.4863 55.5703C61.263 55.8574 60.9372 56.0671 60.5088 56.1992C60.9919 56.2904 61.3792 56.4977 61.6709 56.8213C61.9671 57.1449 62.1152 57.5208 62.1152 57.9492C62.1152 58.6009 61.8737 59.1068 61.3906 59.4668C60.9121 59.8223 60.2331 60 59.3535 60H56.1953ZM57.0088 56.5957V59.3164H59.3809C59.9961 59.3164 60.4701 59.1979 60.8027 58.9609C61.1354 58.724 61.3018 58.3822 61.3018 57.9355C61.3018 57.5254 61.1354 57.1995 60.8027 56.958C60.4701 56.7165 59.9961 56.5957 59.3809 56.5957H57.0088ZM57.0088 55.9121H59.0801C60.3652 55.8939 61.0078 55.4564 61.0078 54.5996C61.0078 54.1484 60.8301 53.8203 60.4746 53.6152C60.1237 53.4056 59.6019 53.3008 58.9092 53.3008H57.0088V55.9121ZM8.35059 72.8965C8.23665 73.9447 7.86068 74.7467 7.22266 75.3027C6.58919 75.8587 5.74382 76.1367 4.68652 76.1367C3.94824 76.1367 3.29427 75.9521 2.72461 75.583C2.15951 75.2139 1.72201 74.6921 1.41211 74.0176C1.10221 73.3385 0.944987 72.5638 0.94043 71.6934V70.4014C0.94043 69.5173 1.09538 68.7334 1.40527 68.0498C1.71517 67.3662 2.15951 66.8398 2.73828 66.4707C3.32161 66.097 3.99154 65.9102 4.74805 65.9102C5.81445 65.9102 6.65527 66.1995 7.27051 66.7783C7.8903 67.3525 8.25033 68.1478 8.35059 69.1641H7.50293C7.29329 67.4733 6.375 66.6279 4.74805 66.6279C3.8457 66.6279 3.12565 66.9652 2.58789 67.6396C2.05469 68.3141 1.78809 69.2461 1.78809 70.4355V71.6523C1.78809 72.8008 2.04785 73.7168 2.56738 74.4004C3.09147 75.084 3.79785 75.4258 4.68652 75.4258C5.56608 75.4258 6.22917 75.2161 6.67578 74.7969C7.1224 74.373 7.39811 73.7396 7.50293 72.8965H8.35059ZM15.8838 76H15.0635V69.3076H11.0781V76H10.2578V68.6035H15.8838V76ZM17.627 72.1924C17.627 71.4814 17.7637 70.8411 18.0371 70.2715C18.3151 69.7018 18.7048 69.2598 19.2061 68.9453C19.7119 68.6263 20.2839 68.4668 20.9219 68.4668C21.9062 68.4668 22.7038 68.8132 23.3145 69.5059C23.9251 70.194 24.2305 71.1077 24.2305 72.2471V72.418C24.2305 73.1335 24.0915 73.7783 23.8135 74.3525C23.54 74.9222 23.1527 75.362 22.6514 75.6719C22.1501 75.9818 21.5781 76.1367 20.9355 76.1367C19.9557 76.1367 19.1582 75.7926 18.543 75.1045C17.9323 74.4118 17.627 73.4958 17.627 72.3564V72.1924ZM18.4473 72.418C18.4473 73.3021 18.6751 74.029 19.1309 74.5986C19.5911 75.1637 20.1927 75.4463 20.9355 75.4463C21.6738 75.4463 22.2708 75.1637 22.7266 74.5986C23.1868 74.029 23.417 73.2793 23.417 72.3496V72.1924C23.417 71.6273 23.3122 71.11 23.1025 70.6406C22.8929 70.1712 22.599 69.8089 22.2207 69.5537C21.8424 69.2939 21.4095 69.1641 20.9219 69.1641C20.1927 69.1641 19.598 69.4512 19.1377 70.0254C18.6774 70.5951 18.4473 71.3424 18.4473 72.2676V72.418ZM31.873 72.377C31.873 73.5299 31.6178 74.446 31.1074 75.125C30.597 75.7995 29.9134 76.1367 29.0566 76.1367C28.0449 76.1367 27.2702 75.7812 26.7324 75.0703V78.8438H25.9189V68.6035H26.6777L26.7188 69.6494C27.252 68.861 28.0244 68.4668 29.0361 68.4668C29.9202 68.4668 30.613 68.8018 31.1143 69.4717C31.6201 70.1416 31.873 71.0713 31.873 72.2607V72.377ZM31.0527 72.2334C31.0527 71.29 30.859 70.5449 30.4717 69.998C30.0843 69.4512 29.5443 69.1777 28.8516 69.1777C28.3503 69.1777 27.9196 69.2985 27.5596 69.54C27.1995 69.7816 26.9238 70.1325 26.7324 70.5928V74.1406C26.9284 74.5645 27.2087 74.888 27.5732 75.1113C27.9378 75.3346 28.3685 75.4463 28.8652 75.4463C29.5534 75.4463 30.0889 75.1729 30.4717 74.626C30.859 74.0745 31.0527 73.277 31.0527 72.2334ZM38.4561 69.3008H35.7627V76H34.9424V69.3008H32.3516V68.6035H38.4561V69.3008ZM44.3623 76C44.2803 75.7676 44.2279 75.4235 44.2051 74.9678C43.918 75.3415 43.5511 75.6309 43.1045 75.8359C42.6624 76.0365 42.193 76.1367 41.6963 76.1367C40.9854 76.1367 40.4089 75.9385 39.9668 75.542C39.5293 75.1455 39.3105 74.6442 39.3105 74.0381C39.3105 73.318 39.609 72.7484 40.2061 72.3291C40.8076 71.9098 41.6439 71.7002 42.7148 71.7002H44.1982V70.8594C44.1982 70.3307 44.0342 69.916 43.7061 69.6152C43.3825 69.3099 42.9085 69.1572 42.2842 69.1572C41.7145 69.1572 41.2428 69.3031 40.8691 69.5947C40.4954 69.8864 40.3086 70.2373 40.3086 70.6475L39.4883 70.6406C39.4883 70.0527 39.7617 69.5446 40.3086 69.1162C40.8555 68.6833 41.5277 68.4668 42.3252 68.4668C43.1501 68.4668 43.7995 68.6742 44.2734 69.0889C44.752 69.499 44.998 70.0732 45.0117 70.8115V74.3115C45.0117 75.027 45.0869 75.5625 45.2373 75.918V76H44.3623ZM41.792 75.4121C42.3389 75.4121 42.8265 75.2799 43.2549 75.0156C43.6878 74.7513 44.0023 74.3981 44.1982 73.9561V72.3291H42.7354C41.9196 72.3382 41.2816 72.4886 40.8213 72.7803C40.361 73.0674 40.1309 73.4639 40.1309 73.9697C40.1309 74.3844 40.2835 74.7285 40.5889 75.002C40.8988 75.2754 41.2998 75.4121 41.792 75.4121ZM51.6357 71.9463V76H50.7949V66.0469H54.1855C55.2201 66.0469 56.0358 66.3112 56.6328 66.8398C57.2344 67.3685 57.5352 68.0954 57.5352 69.0205C57.5352 69.9548 57.2458 70.6771 56.667 71.1875C56.0928 71.6934 55.2588 71.9463 54.165 71.9463H51.6357ZM51.6357 71.2354H54.1855C55.0013 71.2354 55.6234 71.0417 56.0518 70.6543C56.4801 70.2669 56.6943 69.7269 56.6943 69.0342C56.6943 68.346 56.4801 67.7992 56.0518 67.3936C55.6279 66.9834 55.0241 66.7738 54.2402 66.7646H51.6357V71.2354ZM65.376 66.7646H60.2217V70.3672H62.6895C63.3685 70.3672 63.9564 70.4811 64.4531 70.709C64.9499 70.9323 65.3281 71.2559 65.5879 71.6797C65.8522 72.099 65.9844 72.5957 65.9844 73.1699C65.9844 74.0495 65.6904 74.7422 65.1025 75.248C64.5146 75.7493 63.7012 76 62.6621 76H59.374V66.0469H65.376V66.7646ZM60.2217 71.085V75.2891H62.6826C63.4528 75.2891 64.0544 75.0999 64.4873 74.7217C64.9202 74.3389 65.1367 73.8171 65.1367 73.1562C65.1367 72.5273 64.9271 72.0283 64.5078 71.6592C64.0885 71.2855 63.5007 71.0941 62.7441 71.085H60.2217Z" fill="black" fill-opacity="0.7"/>
<path d="M235.235 28H231.69V10.876L226.461 12.6631V9.66016L234.781 6.59863H235.235V28ZM256.988 28H242.647V25.5537L249.752 17.8047C250.777 16.6621 251.505 15.71 251.935 14.9482C252.374 14.1768 252.594 13.4053 252.594 12.6338C252.594 11.6182 252.306 10.7979 251.729 10.1729C251.163 9.54785 250.396 9.23535 249.43 9.23535C248.277 9.23535 247.384 9.58691 246.749 10.29C246.114 10.9932 245.797 11.9551 245.797 13.1758H242.237C242.237 11.877 242.53 10.71 243.116 9.6748C243.712 8.62988 244.557 7.81934 245.65 7.24316C246.754 6.66699 248.023 6.37891 249.459 6.37891C251.529 6.37891 253.16 6.90137 254.352 7.94629C255.553 8.98145 256.153 10.417 256.153 12.2529C256.153 13.3174 255.851 14.4355 255.245 15.6074C254.649 16.7695 253.668 18.0928 252.301 19.5771L247.086 25.1582H256.988V28ZM271.739 20.3975H274.391V23.2539H271.739V28H268.18V23.2539H258.966L258.863 21.0859L268.062 6.67188H271.739V20.3975ZM262.599 20.3975H268.18V11.4912L267.916 11.96L262.599 20.3975Z" fill="#002DA0" fill-opacity="0.8"/>
<path d="M218.65 58.3311H217.283V63H216.442V53.0469H217.283V57.6133H218.609L222.458 53.0469H223.518L219.43 57.9414L223.818 63H222.772L218.65 58.3311ZM229.827 63C229.745 62.7676 229.693 62.4235 229.67 61.9678C229.383 62.3415 229.016 62.6309 228.569 62.8359C228.127 63.0365 227.658 63.1367 227.161 63.1367C226.45 63.1367 225.874 62.9385 225.432 62.542C224.994 62.1455 224.775 61.6442 224.775 61.0381C224.775 60.318 225.074 59.7484 225.671 59.3291C226.272 58.9098 227.109 58.7002 228.18 58.7002H229.663V57.8594C229.663 57.3307 229.499 56.916 229.171 56.6152C228.847 56.3099 228.373 56.1572 227.749 56.1572C227.179 56.1572 226.708 56.3031 226.334 56.5947C225.96 56.8864 225.773 57.2373 225.773 57.6475L224.953 57.6406C224.953 57.0527 225.227 56.5446 225.773 56.1162C226.32 55.6833 226.993 55.4668 227.79 55.4668C228.615 55.4668 229.264 55.6742 229.738 56.0889C230.217 56.499 230.463 57.0732 230.477 57.8115V61.3115C230.477 62.027 230.552 62.5625 230.702 62.918V63H229.827ZM227.257 62.4121C227.804 62.4121 228.291 62.2799 228.72 62.0156C229.153 61.7513 229.467 61.3981 229.663 60.9561V59.3291H228.2C227.384 59.3382 226.746 59.4886 226.286 59.7803C225.826 60.0674 225.596 60.4639 225.596 60.9697C225.596 61.3844 225.748 61.7285 226.054 62.002C226.364 62.2754 226.765 62.4121 227.257 62.4121ZM238.345 63H237.524V59.6094H233.539V63H232.719V55.6035H233.539V58.9189H237.524V55.6035H238.345V63ZM240.368 62.3096L240.73 61.8379C241.305 61.0586 241.635 59.9193 241.722 58.4199L241.852 55.6035H246.22V62.3096H246.985V65.1738H246.172V63H240.614V65.1738H239.828L239.835 62.3096H240.368ZM241.312 62.3096H245.399V56.3691H242.631L242.542 58.29C242.46 60.0537 242.05 61.3936 241.312 62.3096ZM253.425 55.6035H254.245V63H253.425V56.9229L249.433 63H248.619V55.6035H249.433V61.6875L253.425 55.6035ZM256.269 62.3096L256.631 61.8379C257.205 61.0586 257.535 59.9193 257.622 58.4199L257.752 55.6035H262.12V62.3096H262.886V65.1738H262.072V63H256.515V65.1738H255.729L255.735 62.3096H256.269ZM257.212 62.3096H261.3V56.3691H258.531L258.442 58.29C258.36 60.0537 257.95 61.3936 257.212 62.3096ZM269.134 63C269.052 62.7676 268.999 62.4235 268.977 61.9678C268.689 62.3415 268.323 62.6309 267.876 62.8359C267.434 63.0365 266.965 63.1367 266.468 63.1367C265.757 63.1367 265.18 62.9385 264.738 62.542C264.301 62.1455 264.082 61.6442 264.082 61.0381C264.082 60.318 264.381 59.7484 264.978 59.3291C265.579 58.9098 266.415 58.7002 267.486 58.7002H268.97V57.8594C268.97 57.3307 268.806 56.916 268.478 56.6152C268.154 56.3099 267.68 56.1572 267.056 56.1572C266.486 56.1572 266.014 56.3031 265.641 56.5947C265.267 56.8864 265.08 57.2373 265.08 57.6475L264.26 57.6406C264.26 57.0527 264.533 56.5446 265.08 56.1162C265.627 55.6833 266.299 55.4668 267.097 55.4668C267.922 55.4668 268.571 55.6742 269.045 56.0889C269.523 56.499 269.77 57.0732 269.783 57.8115V61.3115C269.783 62.027 269.858 62.5625 270.009 62.918V63H269.134ZM266.563 62.4121C267.11 62.4121 267.598 62.2799 268.026 62.0156C268.459 61.7513 268.774 61.3981 268.97 60.9561V59.3291H267.507C266.691 59.3382 266.053 59.4886 265.593 59.7803C265.132 60.0674 264.902 60.4639 264.902 60.9697C264.902 61.3844 265.055 61.7285 265.36 62.002C265.67 62.2754 266.071 62.4121 266.563 62.4121ZM277.173 56.3008H274.479V63H273.659V56.3008H271.068V55.6035H277.173V56.3008ZM283.079 63C282.997 62.7676 282.945 62.4235 282.922 61.9678C282.635 62.3415 282.268 62.6309 281.821 62.8359C281.379 63.0365 280.91 63.1367 280.413 63.1367C279.702 63.1367 279.126 62.9385 278.684 62.542C278.246 62.1455 278.027 61.6442 278.027 61.0381C278.027 60.318 278.326 59.7484 278.923 59.3291C279.524 58.9098 280.361 58.7002 281.432 58.7002H282.915V57.8594C282.915 57.3307 282.751 56.916 282.423 56.6152C282.099 56.3099 281.625 56.1572 281.001 56.1572C280.431 56.1572 279.96 56.3031 279.586 56.5947C279.212 56.8864 279.025 57.2373 279.025 57.6475L278.205 57.6406C278.205 57.0527 278.479 56.5446 279.025 56.1162C279.572 55.6833 280.244 55.4668 281.042 55.4668C281.867 55.4668 282.516 55.6742 282.99 56.0889C283.469 56.499 283.715 57.0732 283.729 57.8115V61.3115C283.729 62.027 283.804 62.5625 283.954 62.918V63H283.079ZM280.509 62.4121C281.056 62.4121 281.543 62.2799 281.972 62.0156C282.405 61.7513 282.719 61.3981 282.915 60.9561V59.3291H281.452C280.636 59.3382 279.998 59.4886 279.538 59.7803C279.078 60.0674 278.848 60.4639 278.848 60.9697C278.848 61.3844 279 61.7285 279.306 62.002C279.616 62.2754 280.017 62.4121 280.509 62.4121ZM234.934 79V71.6035H237.647C238.586 71.6035 239.306 71.7721 239.808 72.1094C240.309 72.4421 240.56 72.932 240.56 73.5791C240.56 73.9482 240.448 74.2786 240.225 74.5703C240.001 74.8574 239.675 75.0671 239.247 75.1992C239.73 75.2904 240.118 75.4977 240.409 75.8213C240.705 76.1449 240.854 76.5208 240.854 76.9492C240.854 77.6009 240.612 78.1068 240.129 78.4668C239.65 78.8223 238.971 79 238.092 79H234.934ZM235.747 75.5957V78.3164H238.119C238.734 78.3164 239.208 78.1979 239.541 77.9609C239.874 77.724 240.04 77.3822 240.04 76.9355C240.04 76.5254 239.874 76.1995 239.541 75.958C239.208 75.7165 238.734 75.5957 238.119 75.5957H235.747ZM235.747 74.9121H237.818C239.104 74.8939 239.746 74.4564 239.746 73.5996C239.746 73.1484 239.568 72.8203 239.213 72.6152C238.862 72.4056 238.34 72.3008 237.647 72.3008H235.747V74.9121ZM247.389 69.0469L251.06 77.8311L254.744 69.0469H255.865V79H255.024V74.666L255.093 70.2227L251.388 79H250.738L247.047 70.2568L247.115 74.6387V79H246.274V69.0469H247.389ZM265.436 75.8965C265.322 76.9447 264.946 77.7467 264.308 78.3027C263.674 78.8587 262.829 79.1367 261.771 79.1367C261.033 79.1367 260.379 78.9521 259.81 78.583C259.244 78.2139 258.807 77.6921 258.497 77.0176C258.187 76.3385 258.03 75.5638 258.025 74.6934V73.4014C258.025 72.5173 258.18 71.7334 258.49 71.0498C258.8 70.3662 259.244 69.8398 259.823 69.4707C260.407 69.097 261.076 68.9102 261.833 68.9102C262.899 68.9102 263.74 69.1995 264.355 69.7783C264.975 70.3525 265.335 71.1478 265.436 72.1641H264.588C264.378 70.4733 263.46 69.6279 261.833 69.6279C260.931 69.6279 260.211 69.9652 259.673 70.6396C259.14 71.3141 258.873 72.2461 258.873 73.4355V74.6523C258.873 75.8008 259.133 76.7168 259.652 77.4004C260.176 78.084 260.883 78.4258 261.771 78.4258C262.651 78.4258 263.314 78.2161 263.761 77.7969C264.207 77.373 264.483 76.7396 264.588 75.8965H265.436Z" fill="black" fill-opacity="0.7"/>
<path d="M452.671 6.56934V9.51367H452.231C450.239 9.54297 448.647 10.0898 447.456 11.1543C446.265 12.2188 445.557 13.7275 445.332 15.6807C446.475 14.4795 447.935 13.8789 449.712 13.8789C451.597 13.8789 453.081 14.543 454.165 15.8711C455.259 17.1992 455.806 18.9131 455.806 21.0127C455.806 23.1807 455.166 24.9385 453.887 26.2861C452.617 27.624 450.947 28.293 448.877 28.293C446.748 28.293 445.02 27.5068 443.691 25.9346C442.373 24.3623 441.714 22.3018 441.714 19.7529V18.5371C441.714 14.7969 442.622 11.8672 444.438 9.74805C446.265 7.62891 448.887 6.56934 452.305 6.56934H452.671ZM448.848 16.75C448.066 16.75 447.349 16.9697 446.694 17.4092C446.05 17.8486 445.576 18.4346 445.273 19.167V20.251C445.273 21.833 445.605 23.0928 446.27 24.0303C446.934 24.958 447.793 25.4219 448.848 25.4219C449.902 25.4219 450.737 25.0264 451.353 24.2354C451.968 23.4443 452.275 22.4043 452.275 21.1152C452.275 19.8262 451.963 18.7764 451.338 17.9658C450.713 17.1553 449.883 16.75 448.848 16.75ZM472.549 19.0205C472.549 22.0869 471.973 24.4014 470.82 25.9639C469.678 27.5166 467.935 28.293 465.591 28.293C463.286 28.293 461.548 27.5361 460.376 26.0225C459.214 24.499 458.618 22.248 458.589 19.2695V15.5781C458.589 12.5117 459.16 10.2119 460.303 8.67871C461.455 7.14551 463.208 6.37891 465.562 6.37891C467.896 6.37891 469.634 7.12598 470.776 8.62012C471.929 10.1143 472.52 12.3506 472.549 15.3291V19.0205ZM468.989 15.0361C468.989 13.0342 468.716 11.5693 468.169 10.6416C467.622 9.7041 466.753 9.23535 465.562 9.23535C464.399 9.23535 463.545 9.67969 462.998 10.5684C462.451 11.4473 462.163 12.8242 462.134 14.6992V19.5332C462.134 21.5254 462.412 23.0098 462.969 23.9863C463.525 24.9629 464.399 25.4512 465.591 25.4512C466.733 25.4512 467.578 25.002 468.125 24.1035C468.672 23.1953 468.96 21.7793 468.989 19.8555V15.0361ZM484.15 16.2666H489.717V19.5186H484.15V25.8613H480.693V19.5186H475.098V16.2666H480.693V10.334H484.15V16.2666Z" fill="#002DA0" fill-opacity="0.8"/>
<path d="M433.58 59.4248L436.41 53.0469H437.401L433.553 61.3799L433.307 61.8516C432.824 62.7129 432.113 63.1436 431.174 63.1436C430.896 63.1436 430.682 63.1185 430.531 63.0684L430.606 62.3848C430.702 62.4167 430.894 62.4326 431.181 62.4326C431.746 62.4326 432.199 62.1432 432.541 61.5645L432.712 61.2568L433.143 60.3682L429.376 53.0469H430.34L433.58 59.4248ZM443.957 63H443.137V59.8896C442.462 60.1357 441.817 60.2588 441.202 60.2588C440.222 60.2588 439.511 60.0446 439.069 59.6162C438.627 59.1833 438.397 58.5111 438.379 57.5996V55.6035H439.192V57.5586C439.201 58.265 439.356 58.7754 439.657 59.0898C439.963 59.3997 440.478 59.5547 441.202 59.5547C441.863 59.5365 442.508 59.418 443.137 59.1992V55.6035H443.957V63ZM450.813 63C450.731 62.7676 450.679 62.4235 450.656 61.9678C450.369 62.3415 450.002 62.6309 449.556 62.8359C449.114 63.0365 448.644 63.1367 448.147 63.1367C447.437 63.1367 446.86 62.9385 446.418 62.542C445.98 62.1455 445.762 61.6442 445.762 61.0381C445.762 60.318 446.06 59.7484 446.657 59.3291C447.259 58.9098 448.095 58.7002 449.166 58.7002H450.649V57.8594C450.649 57.3307 450.485 56.916 450.157 56.6152C449.834 56.3099 449.36 56.1572 448.735 56.1572C448.166 56.1572 447.694 56.3031 447.32 56.5947C446.947 56.8864 446.76 57.2373 446.76 57.6475L445.939 57.6406C445.939 57.0527 446.213 56.5446 446.76 56.1162C447.307 55.6833 447.979 55.4668 448.776 55.4668C449.601 55.4668 450.251 55.6742 450.725 56.0889C451.203 56.499 451.449 57.0732 451.463 57.8115V61.3115C451.463 62.027 451.538 62.5625 451.688 62.918V63H450.813ZM448.243 62.4121C448.79 62.4121 449.278 62.2799 449.706 62.0156C450.139 61.7513 450.453 61.3981 450.649 60.9561V59.3291H449.187C448.371 59.3382 447.733 59.4886 447.272 59.7803C446.812 60.0674 446.582 60.4639 446.582 60.9697C446.582 61.3844 446.735 61.7285 447.04 62.002C447.35 62.2754 447.751 62.4121 448.243 62.4121ZM454.484 55.6035V62.3096H457.779V55.6035H458.6V62.3096H461.854V55.6035H462.674V62.3096H463.562L463.501 65.1943H462.749V63H453.664V55.6035H454.484ZM469.749 55.6035H470.569V63H469.749V56.9229L465.757 63H464.943V55.6035H465.757V61.6875L469.749 55.6035ZM475.088 58.6045L477.084 55.6035H478.055L475.546 59.2334L478.164 63H477.2L475.095 59.8691L472.989 63H472.025L474.637 59.2334L472.128 55.6035H473.092L475.088 58.6045ZM482.17 62.4463C482.74 62.4463 483.216 62.2868 483.599 61.9678C483.986 61.6442 484.196 61.2272 484.228 60.7168H485.014C484.991 61.168 484.85 61.5804 484.59 61.9541C484.33 62.3232 483.984 62.6126 483.551 62.8223C483.122 63.0319 482.662 63.1367 482.17 63.1367C481.199 63.1367 480.429 62.7995 479.859 62.125C479.294 61.4505 479.012 60.5436 479.012 59.4043V59.1582C479.012 58.429 479.139 57.7842 479.395 57.2236C479.65 56.6631 480.014 56.2301 480.488 55.9248C480.967 55.6195 481.525 55.4668 482.163 55.4668C482.974 55.4668 483.642 55.7083 484.166 56.1914C484.695 56.6745 484.977 57.3102 485.014 58.0986H484.228C484.191 57.5199 483.981 57.0527 483.599 56.6973C483.22 56.3418 482.742 56.1641 482.163 56.1641C481.425 56.1641 480.851 56.4307 480.44 56.9639C480.035 57.4971 479.832 58.2445 479.832 59.2061V59.4453C479.832 60.3887 480.035 61.1247 480.44 61.6533C480.851 62.182 481.427 62.4463 482.17 62.4463ZM492.048 55.6035V63H491.228V60.0195H488.931L487.126 63H486.224L488.083 59.917C487.577 59.7848 487.183 59.5296 486.9 59.1514C486.622 58.7731 486.483 58.3265 486.483 57.8115C486.483 57.1416 486.723 56.6061 487.201 56.2051C487.684 55.804 488.336 55.6035 489.156 55.6035H492.048ZM487.304 57.8252C487.304 58.2581 487.44 58.6136 487.714 58.8916C487.992 59.1696 488.377 59.3132 488.869 59.3223H491.228V56.3008H489.136C488.566 56.3008 488.117 56.4375 487.789 56.7109C487.465 56.9844 487.304 57.3558 487.304 57.8252Z" fill="black" fill-opacity="0.7"/>
<path d="M708.671 6.56934V9.51367H708.231C706.239 9.54297 704.647 10.0898 703.456 11.1543C702.265 12.2188 701.557 13.7275 701.332 15.6807C702.475 14.4795 703.935 13.8789 705.712 13.8789C707.597 13.8789 709.081 14.543 710.165 15.8711C711.259 17.1992 711.806 18.9131 711.806 21.0127C711.806 23.1807 711.166 24.9385 709.887 26.2861C708.617 27.624 706.947 28.293 704.877 28.293C702.748 28.293 701.02 27.5068 699.691 25.9346C698.373 24.3623 697.714 22.3018 697.714 19.7529V18.5371C697.714 14.7969 698.622 11.8672 700.438 9.74805C702.265 7.62891 704.887 6.56934 708.305 6.56934H708.671ZM704.848 16.75C704.066 16.75 703.349 16.9697 702.694 17.4092C702.05 17.8486 701.576 18.4346 701.273 19.167V20.251C701.273 21.833 701.605 23.0928 702.27 24.0303C702.934 24.958 703.793 25.4219 704.848 25.4219C705.902 25.4219 706.737 25.0264 707.353 24.2354C707.968 23.4443 708.275 22.4043 708.275 21.1152C708.275 19.8262 707.963 18.7764 707.338 17.9658C706.713 17.1553 705.883 16.75 704.848 16.75ZM723.1 16.2666H728.666V19.5186H723.1V25.8613H719.643V19.5186H714.047V16.2666H719.643V10.334H723.1V16.2666Z" fill="#002DA0" fill-opacity="0.8"/>
<path d="M647.532 61.3311H646.165V66H645.324V56.0469H646.165V60.6133H647.491L651.34 56.0469H652.399L648.312 60.9414L652.7 66H651.654L647.532 61.3311ZM654.129 66V58.6035H656.843C657.782 58.6035 658.502 58.7721 659.003 59.1094C659.504 59.4421 659.755 59.932 659.755 60.5791C659.755 60.9482 659.643 61.2786 659.42 61.5703C659.197 61.8574 658.871 62.0671 658.442 62.1992C658.925 62.2904 659.313 62.4977 659.604 62.8213C659.901 63.1449 660.049 63.5208 660.049 63.9492C660.049 64.6009 659.807 65.1068 659.324 65.4668C658.846 65.8223 658.167 66 657.287 66H654.129ZM654.942 62.5957V65.3164H657.314C657.93 65.3164 658.404 65.1979 658.736 64.9609C659.069 64.724 659.235 64.3822 659.235 63.9355C659.235 63.5254 659.069 63.1995 658.736 62.958C658.404 62.7165 657.93 62.5957 657.314 62.5957H654.942ZM654.942 61.9121H657.014C658.299 61.8939 658.941 61.4564 658.941 60.5996C658.941 60.1484 658.764 59.8203 658.408 59.6152C658.057 59.4056 657.535 59.3008 656.843 59.3008H654.942V61.9121ZM666.543 66C666.461 65.7676 666.409 65.4235 666.386 64.9678C666.099 65.3415 665.732 65.6309 665.285 65.8359C664.843 66.0365 664.374 66.1367 663.877 66.1367C663.166 66.1367 662.59 65.9385 662.147 65.542C661.71 65.1455 661.491 64.6442 661.491 64.0381C661.491 63.318 661.79 62.7484 662.387 62.3291C662.988 61.9098 663.825 61.7002 664.896 61.7002H666.379V60.8594C666.379 60.3307 666.215 59.916 665.887 59.6152C665.563 59.3099 665.089 59.1572 664.465 59.1572C663.895 59.1572 663.424 59.3031 663.05 59.5947C662.676 59.8864 662.489 60.2373 662.489 60.6475L661.669 60.6406C661.669 60.0527 661.942 59.5446 662.489 59.1162C663.036 58.6833 663.708 58.4668 664.506 58.4668C665.331 58.4668 665.98 58.6742 666.454 59.0889C666.933 59.499 667.179 60.0732 667.192 60.8115V64.3115C667.192 65.027 667.268 65.5625 667.418 65.918V66H666.543ZM663.973 65.4121C664.52 65.4121 665.007 65.2799 665.436 65.0156C665.868 64.7513 666.183 64.3981 666.379 63.9561V62.3291H664.916C664.1 62.3382 663.462 62.4886 663.002 62.7803C662.542 63.0674 662.312 63.4639 662.312 63.9697C662.312 64.3844 662.464 64.7285 662.77 65.002C663.079 65.2754 663.48 65.4121 663.973 65.4121ZM675.067 58.6035V66H674.247V59.3076H671.219L671.089 62.0762C671.034 63.1016 670.932 63.8854 670.781 64.4277C670.631 64.9655 670.408 65.362 670.111 65.6172C669.815 65.8724 669.421 66 668.929 66H668.614V65.2754L668.867 65.2617C669.337 65.2526 669.674 65.0247 669.879 64.5781C670.084 64.1315 670.218 63.334 670.282 62.1855L670.433 58.6035H675.067ZM682.129 58.6035H682.949V66H682.129V59.9229L678.137 66H677.323V58.6035H678.137V64.6875L682.129 58.6035ZM684.836 62.3633C684.836 61.1602 685.071 60.21 685.54 59.5127C686.014 58.8154 686.668 58.4668 687.502 58.4668C687.98 58.4668 688.386 58.5739 688.719 58.7881V55.5H689.532V58.8154C689.869 58.583 690.289 58.4668 690.79 58.4668C691.578 58.4668 692.21 58.7835 692.684 59.417C693.158 60.0505 693.415 60.9323 693.456 62.0625L693.463 62.5068C693.463 63.6325 693.226 64.5212 692.752 65.1729C692.278 65.82 691.629 66.1436 690.804 66.1436C690.312 66.1436 689.888 66.0365 689.532 65.8223V68.8438H688.719V65.8291C688.368 66.0387 687.958 66.1436 687.488 66.1436C686.709 66.1436 686.085 65.8496 685.615 65.2617C685.146 64.6693 684.888 63.8512 684.843 62.8076L684.836 62.3633ZM692.649 62.3633C692.649 61.3698 692.469 60.5882 692.109 60.0186C691.754 59.4489 691.255 59.1641 690.612 59.1641C690.147 59.1641 689.787 59.2643 689.532 59.4648V65.1865C689.819 65.3643 690.184 65.4531 690.626 65.4531C691.264 65.4531 691.761 65.1979 692.116 64.6875C692.472 64.1725 692.649 63.3978 692.649 62.3633ZM685.656 62.5068C685.656 63.4365 685.827 64.1611 686.169 64.6807C686.511 65.1956 687.003 65.4531 687.646 65.4531C688.074 65.4531 688.432 65.3597 688.719 65.1729V59.4443C688.454 59.2575 688.101 59.1641 687.659 59.1641C687.021 59.1641 686.527 59.4489 686.176 60.0186C685.829 60.5837 685.656 61.4131 685.656 62.5068ZM700.148 58.6035H700.969V66H700.148V59.9229L696.156 66H695.343V58.6035H696.156V64.6875L700.148 58.6035ZM703.218 58.6035H704.038V65.3096H708.023V58.6035H708.844V65.3096H709.596L709.534 68.1943H708.782V66H703.218V58.6035ZM715.994 58.6035H716.814V66H715.994V59.9229L712.002 66H711.188V58.6035H712.002V64.6875L715.994 58.6035ZM724.956 62.377C724.956 63.5299 724.701 64.446 724.19 65.125C723.68 65.7995 722.996 66.1367 722.14 66.1367C721.128 66.1367 720.353 65.7812 719.815 65.0703V68.8438H719.002V58.6035H719.761L719.802 59.6494C720.335 58.861 721.107 58.4668 722.119 58.4668C723.003 58.4668 723.696 58.8018 724.197 59.4717C724.703 60.1416 724.956 61.0713 724.956 62.2607V62.377ZM724.136 62.2334C724.136 61.29 723.942 60.5449 723.555 59.998C723.167 59.4512 722.627 59.1777 721.935 59.1777C721.433 59.1777 721.003 59.2985 720.643 59.54C720.283 59.7816 720.007 60.1325 719.815 60.5928V64.1406C720.011 64.5645 720.292 64.888 720.656 65.1113C721.021 65.3346 721.451 65.4463 721.948 65.4463C722.636 65.4463 723.172 65.1729 723.555 64.626C723.942 64.0745 724.136 63.277 724.136 62.2334ZM726.323 62.1924C726.323 61.4814 726.46 60.8411 726.733 60.2715C727.011 59.7018 727.401 59.2598 727.902 58.9453C728.408 58.6263 728.98 58.4668 729.618 58.4668C730.603 58.4668 731.4 58.8132 732.011 59.5059C732.621 60.194 732.927 61.1077 732.927 62.2471V62.418C732.927 63.1335 732.788 63.7783 732.51 64.3525C732.236 64.9222 731.849 65.362 731.348 65.6719C730.846 65.9818 730.274 66.1367 729.632 66.1367C728.652 66.1367 727.854 65.7926 727.239 65.1045C726.629 64.4118 726.323 63.4958 726.323 62.3564V62.1924ZM727.144 62.418C727.144 63.3021 727.371 64.029 727.827 64.5986C728.287 65.1637 728.889 65.4463 729.632 65.4463C730.37 65.4463 730.967 65.1637 731.423 64.5986C731.883 64.029 732.113 63.2793 732.113 62.3496V62.1924C732.113 61.6273 732.008 61.11 731.799 60.6406C731.589 60.1712 731.295 59.8089 730.917 59.5537C730.539 59.2939 730.106 59.1641 729.618 59.1641C728.889 59.1641 728.294 59.4512 727.834 60.0254C727.374 60.5951 727.144 61.3424 727.144 62.2676V62.418ZM734.711 66V58.6035H737.425C738.364 58.6035 739.084 58.7721 739.585 59.1094C740.086 59.4421 740.337 59.932 740.337 60.5791C740.337 60.9482 740.225 61.2786 740.002 61.5703C739.779 61.8574 739.453 62.0671 739.024 62.1992C739.507 62.2904 739.895 62.4977 740.187 62.8213C740.483 63.1449 740.631 63.5208 740.631 63.9492C740.631 64.6009 740.389 65.1068 739.906 65.4668C739.428 65.8223 738.749 66 737.869 66H734.711ZM735.524 62.5957V65.3164H737.896C738.512 65.3164 738.986 65.1979 739.318 64.9609C739.651 64.724 739.817 64.3822 739.817 63.9355C739.817 63.5254 739.651 63.1995 739.318 62.958C738.986 62.7165 738.512 62.5957 737.896 62.5957H735.524ZM735.524 61.9121H737.596C738.881 61.8939 739.523 61.4564 739.523 60.5996C739.523 60.1484 739.346 59.8203 738.99 59.6152C738.639 59.4056 738.118 59.3008 737.425 59.3008H735.524V61.9121ZM747.125 66C747.043 65.7676 746.991 65.4235 746.968 64.9678C746.681 65.3415 746.314 65.6309 745.867 65.8359C745.425 66.0365 744.956 66.1367 744.459 66.1367C743.748 66.1367 743.172 65.9385 742.729 65.542C742.292 65.1455 742.073 64.6442 742.073 64.0381C742.073 63.318 742.372 62.7484 742.969 62.3291C743.57 61.9098 744.407 61.7002 745.478 61.7002H746.961V60.8594C746.961 60.3307 746.797 59.916 746.469 59.6152C746.145 59.3099 745.671 59.1572 745.047 59.1572C744.477 59.1572 744.006 59.3031 743.632 59.5947C743.258 59.8864 743.071 60.2373 743.071 60.6475L742.251 60.6406C742.251 60.0527 742.524 59.5446 743.071 59.1162C743.618 58.6833 744.29 58.4668 745.088 58.4668C745.913 58.4668 746.562 58.6742 747.036 59.0889C747.515 59.499 747.761 60.0732 747.774 60.8115V64.3115C747.774 65.027 747.85 65.5625 748 65.918V66H747.125ZM744.555 65.4121C745.102 65.4121 745.589 65.2799 746.018 65.0156C746.451 64.7513 746.765 64.3981 746.961 63.9561V62.3291H745.498C744.682 62.3382 744.044 62.4886 743.584 62.7803C743.124 63.0674 742.894 63.4639 742.894 63.9697C742.894 64.3844 743.046 64.7285 743.352 65.002C743.661 65.2754 744.062 65.4121 744.555 65.4121ZM755.643 66H754.822V62.6094H750.837V66H750.017V58.6035H750.837V61.9189H754.822V58.6035H755.643V66ZM763.518 66H762.697V62.6094H758.712V66H757.892V58.6035H758.712V61.9189H762.697V58.6035H763.518V66ZM766.614 61.29H768.747C769.294 61.29 769.772 61.3903 770.183 61.5908C770.597 61.7868 770.91 62.0602 771.119 62.4111C771.333 62.762 771.44 63.1699 771.44 63.6348C771.44 64.3503 771.194 64.9245 770.702 65.3574C770.215 65.7858 769.554 66 768.72 66H765.801V58.6035H766.614V61.29ZM766.614 61.9873V65.3096H768.733C769.321 65.3096 769.782 65.1615 770.114 64.8652C770.451 64.569 770.62 64.1634 770.62 63.6484C770.62 63.1562 770.456 62.7598 770.128 62.459C769.804 62.1536 769.36 61.9964 768.795 61.9873H766.614ZM773.949 66H773.129V58.6035H773.949V66ZM778.55 61.6045L780.546 58.6035H781.517L779.008 62.2334L781.626 66H780.662L778.557 62.8691L776.451 66H775.487L778.099 62.2334L775.59 58.6035H776.554L778.55 61.6045ZM689.272 75.3008H686.579V82H685.759V75.3008H683.168V74.6035H689.272V75.3008ZM696.566 78.377C696.566 79.5299 696.311 80.446 695.801 81.125C695.29 81.7995 694.607 82.1367 693.75 82.1367C692.738 82.1367 691.964 81.7812 691.426 81.0703V84.8438H690.612V74.6035H691.371L691.412 75.6494C691.945 74.861 692.718 74.4668 693.729 74.4668C694.614 74.4668 695.306 74.8018 695.808 75.4717C696.313 76.1416 696.566 77.0713 696.566 78.2607V78.377ZM695.746 78.2334C695.746 77.29 695.552 76.5449 695.165 75.998C694.778 75.4512 694.238 75.1777 693.545 75.1777C693.044 75.1777 692.613 75.2985 692.253 75.54C691.893 75.7816 691.617 76.1325 691.426 76.5928V80.1406C691.622 80.5645 691.902 80.888 692.267 81.1113C692.631 81.3346 693.062 81.4463 693.559 81.4463C694.247 81.4463 694.782 81.1729 695.165 80.626C695.552 80.0745 695.746 79.277 695.746 78.2334ZM701.249 82.1367C700.62 82.1367 700.05 81.9818 699.54 81.6719C699.034 81.362 698.64 80.9313 698.357 80.3799C698.075 79.8239 697.934 79.2018 697.934 78.5137V78.2197C697.934 77.5088 698.07 76.8685 698.344 76.2988C698.622 75.7292 699.007 75.2826 699.499 74.959C699.991 74.6309 700.524 74.4668 701.099 74.4668C701.996 74.4668 702.707 74.7744 703.231 75.3896C703.76 76.0003 704.024 76.8366 704.024 77.8984V78.3564H698.747V78.5137C698.747 79.3522 698.986 80.0518 699.465 80.6123C699.948 81.1683 700.554 81.4463 701.283 81.4463C701.721 81.4463 702.106 81.3665 702.438 81.207C702.776 81.0475 703.081 80.7923 703.354 80.4414L703.867 80.8311C703.266 81.7015 702.393 82.1367 701.249 82.1367ZM701.099 75.1641C700.483 75.1641 699.964 75.3896 699.54 75.8408C699.121 76.292 698.866 76.8981 698.774 77.6592H703.211V77.5703C703.188 76.8594 702.985 76.2806 702.603 75.834C702.22 75.3874 701.718 75.1641 701.099 75.1641ZM711.298 82H710.478V78.6094H706.492V82H705.672V74.6035H706.492V77.9189H710.478V74.6035H711.298V82ZM716.356 82.1367C715.728 82.1367 715.158 81.9818 714.647 81.6719C714.142 81.362 713.747 80.9313 713.465 80.3799C713.182 79.8239 713.041 79.2018 713.041 78.5137V78.2197C713.041 77.5088 713.178 76.8685 713.451 76.2988C713.729 75.7292 714.114 75.2826 714.606 74.959C715.099 74.6309 715.632 74.4668 716.206 74.4668C717.104 74.4668 717.815 74.7744 718.339 75.3896C718.868 76.0003 719.132 76.8366 719.132 77.8984V78.3564H713.854V78.5137C713.854 79.3522 714.094 80.0518 714.572 80.6123C715.055 81.1683 715.661 81.4463 716.391 81.4463C716.828 81.4463 717.213 81.3665 717.546 81.207C717.883 81.0475 718.188 80.7923 718.462 80.4414L718.975 80.8311C718.373 81.7015 717.5 82.1367 716.356 82.1367ZM716.206 75.1641C715.591 75.1641 715.071 75.3896 714.647 75.8408C714.228 76.292 713.973 76.8981 713.882 77.6592H718.318V77.5703C718.296 76.8594 718.093 76.2806 717.71 75.834C717.327 75.3874 716.826 75.1641 716.206 75.1641ZM726.672 78.377C726.672 79.5299 726.417 80.446 725.906 81.125C725.396 81.7995 724.712 82.1367 723.855 82.1367C722.844 82.1367 722.069 81.7812 721.531 81.0703V84.8438H720.718V74.6035H721.477L721.518 75.6494C722.051 74.861 722.823 74.4668 723.835 74.4668C724.719 74.4668 725.412 74.8018 725.913 75.4717C726.419 76.1416 726.672 77.0713 726.672 78.2607V78.377ZM725.852 78.2334C725.852 77.29 725.658 76.5449 725.271 75.998C724.883 75.4512 724.343 75.1777 723.65 75.1777C723.149 75.1777 722.718 75.2985 722.358 75.54C721.998 75.7816 721.723 76.1325 721.531 76.5928V80.1406C721.727 80.5645 722.007 80.888 722.372 81.1113C722.737 81.3346 723.167 81.4463 723.664 81.4463C724.352 81.4463 724.888 81.1729 725.271 80.626C725.658 80.0745 725.852 79.277 725.852 78.2334ZM728.039 78.1924C728.039 77.4814 728.176 76.8411 728.449 76.2715C728.727 75.7018 729.117 75.2598 729.618 74.9453C730.124 74.6263 730.696 74.4668 731.334 74.4668C732.318 74.4668 733.116 74.8132 733.727 75.5059C734.337 76.194 734.643 77.1077 734.643 78.2471V78.418C734.643 79.1335 734.504 79.7783 734.226 80.3525C733.952 80.9222 733.565 81.362 733.063 81.6719C732.562 81.9818 731.99 82.1367 731.348 82.1367C730.368 82.1367 729.57 81.7926 728.955 81.1045C728.344 80.4118 728.039 79.4958 728.039 78.3564V78.1924ZM728.859 78.418C728.859 79.3021 729.087 80.029 729.543 80.5986C730.003 81.1637 730.605 81.4463 731.348 81.4463C732.086 81.4463 732.683 81.1637 733.139 80.5986C733.599 80.029 733.829 79.2793 733.829 78.3496V78.1924C733.829 77.6273 733.724 77.11 733.515 76.6406C733.305 76.1712 733.011 75.8089 732.633 75.5537C732.255 75.2939 731.822 75.1641 731.334 75.1641C730.605 75.1641 730.01 75.4512 729.55 76.0254C729.09 76.5951 728.859 77.3424 728.859 78.2676V78.418ZM736.427 82V74.6035H739.141C740.079 74.6035 740.799 74.7721 741.301 75.1094C741.802 75.4421 742.053 75.932 742.053 76.5791C742.053 76.9482 741.941 77.2786 741.718 77.5703C741.494 77.8574 741.169 78.0671 740.74 78.1992C741.223 78.2904 741.611 78.4977 741.902 78.8213C742.199 79.1449 742.347 79.5208 742.347 79.9492C742.347 80.6009 742.105 81.1068 741.622 81.4668C741.144 81.8223 740.465 82 739.585 82H736.427ZM737.24 78.5957V81.3164H739.612C740.228 81.3164 740.701 81.1979 741.034 80.9609C741.367 80.724 741.533 80.3822 741.533 79.9355C741.533 79.5254 741.367 79.1995 741.034 78.958C740.701 78.7165 740.228 78.5957 739.612 78.5957H737.24ZM737.24 77.9121H739.312C740.597 77.8939 741.239 77.4564 741.239 76.5996C741.239 76.1484 741.062 75.8203 740.706 75.6152C740.355 75.4056 739.833 75.3008 739.141 75.3008H737.24V77.9121Z" fill="black" fill-opacity="0.7"/>
<circle cx="138" cy="19" r="5" fill="#002DA0" fill-opacity="0.15"/>
<circle cx="150" cy="19" r="3" fill="#002DA0" fill-opacity="0.15"/>
<circle cx="126" cy="19" r="3" fill="#002DA0" fill-opacity="0.15"/>
<circle cx="361" cy="19" r="5" fill="#002DA0" fill-opacity="0.15"/>
<circle cx="373" cy="19" r="3" fill="#002DA0" fill-opacity="0.15"/>
<circle cx="349" cy="19" r="3" fill="#002DA0" fill-opacity="0.15"/>
<circle cx="570" cy="19" r="5" fill="#002DA0" fill-opacity="0.15"/>
<circle cx="582" cy="19" r="3" fill="#002DA0" fill-opacity="0.15"/>
<circle cx="558" cy="19" r="3" fill="#002DA0" fill-opacity="0.15"/>
</svg>
